<svg width="27" height="27" viewBox="0 0 27 27" fill="none" xmlns="http://www.w3.org/2000/svg">
<path d="M14.4851 10.0625H12.2351V7.8125H14.4851V10.0625ZM14.4851 15.125H12.2351V12.875H14.4851V15.125ZM14.4851 20.1875H12.2351V17.9375H14.4851V20.1875ZM24.6101 11.75V7.25C24.6101 6.65326 24.3731 6.08097 23.9511 5.65901C23.5292 5.23705 22.9569 5 22.3601 5H4.36014C3.7634 5 3.1911 5.23705 2.76915 5.65901C2.34719 6.08097 2.11014 6.65326 2.11014 7.25V11.75C2.70688 11.75 3.27917 11.9871 3.70113 12.409C4.12309 12.831 4.36014 13.4033 4.36014 14C4.36014 14.5967 4.12309 15.169 3.70113 15.591C3.27917 16.0129 2.70688 16.25 2.11014 16.25V20.75C2.11014 21.3467 2.34719 21.919 2.76915 22.341C3.1911 22.7629 3.7634 23 4.36014 23H22.3601C22.9569 23 23.5292 22.7629 23.9511 22.341C24.3731 21.919 24.6101 21.3467 24.6101 20.75V16.25C24.0134 16.25 23.4411 16.0129 23.0191 15.591C22.5972 15.169 22.3601 14.5967 22.3601 14C22.3601 13.4033 22.5972 12.831 23.0191 12.409C23.4411 11.9871 24.0134 11.75 24.6101 11.75Z" fill="#DBDBDB"/>
<mask id="mask0" mask-type="alpha" maskUnits="userSpaceOnUse" x="2" y="5" width="23" height="18">
<path d="M14.4851 10.0625H12.2351V7.8125H14.4851V10.0625ZM14.4851 15.125H12.2351V12.875H14.4851V15.125ZM14.4851 20.1875H12.2351V17.9375H14.4851V20.1875ZM24.6101 11.75V7.25C24.6101 6.65326 24.3731 6.08097 23.9511 5.65901C23.5292 5.23705 22.9569 5 22.3601 5H4.36014C3.7634 5 3.1911 5.23705 2.76915 5.65901C2.34719 6.08097 2.11014 6.65326 2.11014 7.25V11.75C2.70688 11.75 3.27917 11.9871 3.70113 12.409C4.12309 12.831 4.36014 13.4033 4.36014 14C4.36014 14.5967 4.12309 15.169 3.70113 15.591C3.27917 16.0129 2.70688 16.25 2.11014 16.25V20.75C2.11014 21.3467 2.34719 21.919 2.76915 22.341C3.1911 22.7629 3.7634 23 4.36014 23H22.3601C22.9569 23 23.5292 22.7629 23.9511 22.341C24.3731 21.919 24.6101 21.3467 24.6101 20.75V16.25C24.0134 16.25 23.4411 16.0129 23.0191 15.591C22.5972 15.169 22.3601 14.5967 22.3601 14C22.3601 13.4033 22.5972 12.831 23.0191 12.409C23.4411 11.9871 24.0134 11.75 24.6101 11.75Z" fill="#F5F5F5"/>
</mask>
<g mask="url(#mask0)">
<rect x="13.3601" y="-0.318146" width="19.6364" height="30.6818" fill="white" fill-opacity="0.5"/>
</g>
</svg>
