<svg width="27" height="27" viewBox="0 0 27 27" fill="none" xmlns="http://www.w3.org/2000/svg">
<path d="M21.8881 4H5.09868C3.93391 4 3 4.93391 3 6.09868V20.7894C3 21.9542 3.93391 22.8881 5.09868 22.8881H21.8881C23.0529 22.8881 23.9868 21.9542 23.9868 20.7894V6.09868C23.9868 4.93391 23.0529 4 21.8881 4ZM6.14802 8.19736H11.3947V14.4934H6.14802V8.19736ZM20.8388 18.6907H6.14802V16.5921H20.8388V18.6907ZM20.8388 14.4934H13.4934V12.3947H20.8388V14.4934ZM20.8388 10.296H13.4934V8.19736H20.8388V10.296Z" fill="#A345D0"/>
<mask id="mask0" mask-type="alpha" maskUnits="userSpaceOnUse" x="3" y="4" width="21" height="19">
<path d="M21.8881 4H5.09868C3.93391 4 3 4.93391 3 6.09868V20.7894C3 21.9542 3.93391 22.8881 5.09868 22.8881H21.8881C23.0529 22.8881 23.9868 21.9542 23.9868 20.7894V6.09868C23.9868 4.93391 23.0529 4 21.8881 4ZM6.14802 8.19736H11.3947V14.4934H6.14802V8.19736ZM20.8388 18.6907H6.14802V16.5921H20.8388V18.6907ZM20.8388 14.4934H13.4934V12.3947H20.8388V14.4934ZM20.8388 10.296H13.4934V8.19736H20.8388V10.296Z" fill="#007FE9"/>
</mask>
<g mask="url(#mask0)">
<path d="M29.2335 5.57395C29.2335 8.76138 26.6496 11.3453 23.4622 11.3453C20.2747 11.3453 17.6908 8.76138 17.6908 5.57395C17.6908 2.38651 20.2747 -0.197418 23.4622 -0.197418C26.6496 -0.197418 29.2335 2.38651 29.2335 5.57395Z" fill="white" fill-opacity="0.5"/>
</g>
</svg>
