<svg width="27" height="27" viewBox="0 0 27 27" fill="none" xmlns="http://www.w3.org/2000/svg">
<path d="M22.6433 13.75L14.1446 4.29912C13.7867 3.90029 13.0993 3.90029 12.7414 4.29912L4.24267 13.75C4.12034 13.8857 4.04005 14.0541 4.01155 14.2346C3.98305 14.4152 4.00757 14.6001 4.08214 14.7669C4.23323 15.1081 4.57129 15.3274 4.94428 15.3274H6.83288V21.943C6.83288 22.1937 6.93237 22.4341 7.10946 22.6113C7.28655 22.7885 7.52674 22.8881 7.77718 22.8881H10.6101C10.8605 22.8881 11.1007 22.7885 11.2778 22.6113C11.4549 22.4341 11.5544 22.1937 11.5544 21.943V18.1627H15.3316V21.943C15.3316 22.1937 15.4311 22.4341 15.6082 22.6113C15.7853 22.7885 16.0254 22.8881 16.2759 22.8881H19.1088C19.3592 22.8881 19.5994 22.7885 19.7765 22.6113C19.9536 22.4341 20.0531 22.1937 20.0531 21.943V15.3274H21.9417C22.1246 15.3282 22.3037 15.2757 22.4573 15.1763C22.6109 15.0769 22.7323 14.935 22.8066 14.7678C22.881 14.6006 22.9052 14.4153 22.8762 14.2346C22.8472 14.0539 22.7663 13.8855 22.6433 13.75Z" fill="#DBDBDB"/>
<mask id="mask0" mask-type="alpha" maskUnits="userSpaceOnUse" x="4" y="4" width="19" height="19">
<path d="M22.6433 13.75L14.1446 4.29912C13.7867 3.90029 13.0993 3.90029 12.7414 4.29912L4.24267 13.75C4.12034 13.8857 4.04005 14.0541 4.01155 14.2346C3.98305 14.4152 4.00757 14.6001 4.08214 14.7669C4.23323 15.1081 4.57129 15.3274 4.94428 15.3274H6.83288V21.943C6.83288 22.1937 6.93237 22.4341 7.10946 22.6113C7.28655 22.7885 7.52674 22.8881 7.77718 22.8881H10.6101C10.8605 22.8881 11.1007 22.7885 11.2778 22.6113C11.4549 22.4341 11.5544 22.1937 11.5544 21.943V18.1627H15.3316V21.943C15.3316 22.1937 15.4311 22.4341 15.6082 22.6113C15.7853 22.7885 16.0254 22.8881 16.2759 22.8881H19.1088C19.3592 22.8881 19.5994 22.7885 19.7765 22.6113C19.9536 22.4341 20.0531 22.1937 20.0531 21.943V15.3274H21.9417C22.1246 15.3282 22.3037 15.2757 22.4573 15.1763C22.6109 15.0769 22.7323 14.935 22.8066 14.7678C22.881 14.6006 22.9052 14.4153 22.8762 14.2346C22.8472 14.0539 22.7663 13.8855 22.6433 13.75Z" fill="#E5E5E5"/>
</mask>
<g mask="url(#mask0)">
<path d="M14.358 5.67558C14.358 10.3025 10.6071 14.0534 5.98018 14.0534C1.35325 14.0534 -2.39761 10.3025 -2.39761 5.67558C-2.39761 1.04865 1.35325 -2.70221 5.98018 -2.70221C10.6071 -2.70221 14.358 1.04865 14.358 5.67558Z" fill="white" fill-opacity="0.5"/>
</g>
</svg>
