<svg width="27" height="27" viewBox="0 0 27 27" fill="none" xmlns="http://www.w3.org/2000/svg">
<path d="M9.25 9.25C9.25 11.5932 11.1568 13.5 13.5 13.5C15.8432 13.5 17.75 11.5932 17.75 9.25C17.75 6.90683 15.8432 5 13.5 5C11.1568 5 9.25 6.90683 9.25 9.25ZM21.0556 22.9444H22V22C22 18.3554 19.0335 15.3889 15.3889 15.3889H11.6111C7.96556 15.3889 5 18.3554 5 22V22.9444H21.0556Z" fill="#A345D0"/>
<mask id="mask0" mask-type="alpha" maskUnits="userSpaceOnUse" x="5" y="5" width="17" height="18">
<path d="M9.25 9.25C9.25 11.5932 11.1568 13.5 13.5 13.5C15.8432 13.5 17.75 11.5932 17.75 9.25C17.75 6.90683 15.8432 5 13.5 5C11.1568 5 9.25 6.90683 9.25 9.25ZM21.0556 22.9444H22V22C22 18.3554 19.0335 15.3889 15.3889 15.3889H11.6111C7.96556 15.3889 5 18.3554 5 22V22.9444H21.0556Z" fill="#007FE9"/>
</mask>
<g mask="url(#mask0)">
<circle cx="13.5" cy="8.77772" r="4.72222" fill="white" fill-opacity="0.5"/>
</g>
</svg>
