<svg width="27" height="27" viewBox="0 0 27 27" fill="none" xmlns="http://www.w3.org/2000/svg">
<path d="M5 3V6H2V8H5V11H7V8H10V6H7V3H5ZM11 6V9H8V12H5V22C5 22.5304 5.21071 23.0391 5.58579 23.4142C5.96086 23.7893 6.46957 24 7 24H21C22.11 24 23 23.11 23 22V21H14C13.4696 21 12.9609 20.7893 12.5858 20.4142C12.2107 20.0391 12 19.5304 12 19V11C12 10.4696 12.2107 9.96086 12.5858 9.58579C12.9609 9.21071 13.4696 9 14 9H23V8C23 7.46957 22.7893 6.96086 22.4142 6.58579C22.0391 6.21071 21.5304 6 21 6H11ZM14 11V19H24V11H14ZM18 13.5C18.83 13.5 19.5 14.17 19.5 15C19.5 15.83 18.83 16.5 18 16.5C17.17 16.5 16.5 15.83 16.5 15C16.5 14.17 17.17 13.5 18 13.5Z" fill="#DBDBDB"/>
<mask id="mask0" mask-type="alpha" maskUnits="userSpaceOnUse" x="2" y="3" width="22" height="21">
<path d="M5 3V6H2V8H5V11H7V8H10V6H7V3H5ZM11 6V9H8V12H5V22C5 22.5304 5.21071 23.0391 5.58579 23.4142C5.96086 23.7893 6.46957 24 7 24H21C22.11 24 23 23.11 23 22V21H14C13.4696 21 12.9609 20.7893 12.5858 20.4142C12.2107 20.0391 12 19.5304 12 19V11C12 10.4696 12.2107 9.96086 12.5858 9.58579C12.9609 9.21071 13.4696 9 14 9H23V8C23 7.46957 22.7893 6.96086 22.4142 6.58579C22.0391 6.21071 21.5304 6 21 6H11ZM14 11V19H24V11H14ZM18 13.5C18.83 13.5 19.5 14.17 19.5 15C19.5 15.83 18.83 16.5 18 16.5C17.17 16.5 16.5 15.83 16.5 15C16.5 14.17 17.17 13.5 18 13.5Z" fill="#DBDBDB"/>
</mask>
<g mask="url(#mask0)">
<path d="M12 26C12 30.9706 7.74671 35 2.5 35C-2.74671 35 -7 30.9706 -7 26C-7 21.0294 -2.74671 17 2.5 17C7.74671 17 12 21.0294 12 26Z" fill="white" fill-opacity="0.5"/>
</g>
</svg>
